<?xml version="1.0" standalone="no"?>
<!DOCTYPE svg PUBLIC "-//W3C//DTD SVG 20010904//EN"
 "http://www.w3.org/TR/2001/REC-SVG-20010904/DTD/svg10.dtd">
<svg version="1.0" xmlns="http://www.w3.org/2000/svg"
 width="400.000000pt" height="400.000000pt" viewBox="0 0 400.000000 400.000000"
 preserveAspectRatio="xMidYMid meet">
<metadata>
Created by potrace 1.11, written by Peter Selinger 2001-2013
</metadata>
<g transform="translate(0.000000,400.000000) scale(0.100000,-0.100000)"
fill="#000000" stroke="none">
<path d="M1980 3993 c0 -5 -23 -19 -50 -32 -28 -14 -50 -29 -50 -33 0 -4 -3
-7 -7 -6 -13 3 -63 -24 -63 -34 0 -4 -9 -8 -19 -8 -10 0 -21 -7 -25 -15 -3 -8
-9 -14 -13 -13 -7 2 -46 -17 -95 -47 -72 -43 -418 -243 -543 -314 -143 -81
-149 -85 -155 -91 -3 -3 -18 -12 -35 -20 -16 -8 -53 -29 -82 -47 -29 -18 -55
-33 -58 -33 -3 0 -24 -11 -46 -26 -39 -24 -71 -43 -151 -88 -20 -12 -89 -51
-154 -88 -64 -38 -121 -68 -125 -68 -5 0 -9 -4 -9 -9 0 -5 -8 -11 -17 -13 -17
-3 -18 -59 -19 -998 -1 -547 2 -1001 5 -1008 7 -13 82 -58 114 -69 9 -3 17 -9
17 -14 0 -5 5 -9 10 -9 9 0 131 -69 360 -204 25 -15 53 -29 62 -33 10 -3 18
-9 18 -14 0 -5 4 -9 9 -9 8 0 121 -63 306 -172 28 -16 58 -32 68 -35 9 -3 17
-9 17 -13 0 -4 8 -11 18 -14 37 -14 194 -106 204 -121 4 -5 8 -7 8 -2 0 4 18
-4 40 -18 22 -14 44 -25 50 -25 5 0 10 -3 10 -7 0 -5 10 -13 23 -19 40 -19
142 -77 147 -83 3 -3 19 -13 35 -21 17 -8 32 -17 35 -20 3 -3 23 -14 45 -25
22 -11 42 -23 45 -26 3 -4 24 -16 47 -28 l42 -21 48 29 c142 85 249 145 255
144 3 -2 12 4 18 12 7 8 19 15 26 15 8 0 14 5 14 10 0 6 4 10 9 10 9 0 291
159 301 170 3 3 30 18 60 34 30 16 62 35 71 42 8 8 23 14 32 14 9 0 17 4 17 8
0 5 19 19 43 31 69 38 110 61 142 81 17 10 53 31 80 46 28 14 62 35 77 45 14
11 29 19 32 19 4 0 39 20 79 44 39 24 106 62 147 86 41 23 91 52 110 63 19 11
55 31 80 45 69 38 80 46 80 54 0 5 -7 8 -15 8 -8 0 -15 3 -15 8 0 4 -10 12
-23 17 -37 18 -112 60 -117 66 -3 4 -25 17 -50 29 -25 12 -47 26 -50 29 -3 4
-20 13 -37 20 -18 8 -33 17 -33 22 0 5 -4 9 -9 9 -6 0 -38 17 -73 37 -35 21
-80 47 -100 58 -21 11 -79 44 -130 74 -51 30 -107 62 -124 72 -17 9 -42 23
-55 31 -13 7 -26 15 -29 18 -3 3 -23 14 -45 25 -22 11 -42 23 -45 26 -3 3 -21
14 -40 25 -19 10 -43 25 -52 33 -10 8 -18 11 -18 6 0 -4 -6 -3 -12 3 -11 8
-222 133 -338 200 -34 19 -122 70 -205 118 -22 13 -49 28 -60 33 -47 21 -46
35 3 61 26 14 49 27 52 30 3 3 19 12 35 20 17 8 46 25 65 38 19 13 55 33 79
45 73 37 81 41 81 49 0 5 5 8 10 8 6 0 38 17 73 38 34 20 76 44 92 52 17 8 32
17 35 21 6 6 89 53 135 77 17 8 41 23 55 32 14 10 57 34 95 55 39 21 72 41 75
45 3 3 21 14 40 23 19 10 49 26 65 36 17 10 46 27 65 38 204 116 346 198 350
203 5 5 15 11 96 55 27 14 63 35 79 45 17 11 45 27 63 36 17 9 32 19 32 23 0
3 -31 23 -70 44 -38 21 -72 42 -75 48 -4 5 -11 7 -16 4 -5 -4 -9 -1 -9 4 0 6
-4 11 -10 11 -5 0 -39 18 -75 40 -36 22 -67 40 -69 40 -2 0 -34 18 -70 40 -36
22 -70 40 -76 40 -5 0 -10 4 -10 8 0 4 -12 13 -27 20 -16 6 -46 23 -68 37 -22
14 -48 28 -57 32 -10 3 -18 10 -18 15 0 5 -4 7 -9 3 -5 -3 -12 -1 -16 4 -3 5
-18 16 -33 24 -48 24 -77 42 -84 52 -4 6 -8 6 -8 1 0 -5 -8 -2 -17 6 -10 8
-61 39 -113 69 -52 30 -103 59 -112 64 -9 6 -30 18 -48 27 -71 39 -387 222
-412 240 -15 10 -38 23 -50 28 -13 6 -39 20 -58 32 -57 34 -118 68 -124 68 -3
0 -6 -3 -6 -7z"/>
</g>
</svg>
